<?xml version="1.0" standalone="no"?>
<svg xmlns="http://www.w3.org/2000/svg" viewBox="0 0 140.32800000000003 41.784" width="140.32800000000003" height="41.784"><rect fill="none" stroke="#737270" stroke-width="3" width="137.32800000000003" height="38.784" x="1.5" y="1.5"></rect><path fill="#646567" fill-rule="nonzero" d="M6.14 1.20L10.18 13.20L14.35 1.20L12.48 1.20L12.48 0.74L16.15 0.74L16.15 1.20L15.02 1.20L9.24 17.78L7.22 17.78L1.10 1.20L0 1.20L0 0.74L7.85 0.74L7.85 1.20L6.14 1.20ZM19.70 4.46Q18.43 4.46 17.89 3.82Q17.35 3.17 17.35 2.21Q17.35 1.25 17.94 0.62Q18.53 0 19.73 0Q20.93 0 21.55 0.56Q22.18 1.13 22.18 2.17Q22.18 3.22 21.58 3.84Q20.98 4.46 19.70 4.46ZM16.08 6.55L16.08 6.12L21.96 6.12L21.96 17.11L23.30 17.11L23.30 17.54L16.18 17.54L16.18 17.11L17.50 17.11L17.50 6.55L16.08 6.55ZM23.81 6.55L22.82 6.55L22.82 6.12L30.00 6.12L30.00 6.55L28.49 6.55L31.37 14.52L33.96 6.55L32.35 6.55L32.35 6.12L35.59 6.12L35.59 6.55L34.54 6.55L30.98 17.54L28.25 17.54L23.81 6.55ZM41.54 17.78Q38.45 17.78 36.90 16.19Q35.35 14.59 35.35 11.75Q35.35 8.90 37.09 7.39Q38.83 5.88 41.52 5.88L41.52 5.88Q46.97 5.88 46.75 11.35L46.75 11.35L39.98 11.35L39.98 12.29Q39.98 14.64 40.58 15.84Q41.18 17.04 42.67 17.04L42.67 17.04Q45.46 17.04 46.32 14.06L46.32 14.06L46.75 14.14Q46.30 15.86 45.11 16.82Q43.92 17.78 41.54 17.78L41.54 17.78ZM40.01 9.70L40.01 10.87L42.48 10.87L42.48 9.70Q42.48 7.75 42.25 7.04Q42.02 6.34 41.34 6.34Q40.66 6.34 40.33 7.09Q40.01 7.85 40.01 9.70L40.01 9.70ZM47.88 1.27L47.88 0.74L56.52 0.74L56.52 1.27L53.98 1.27L53.98 17.02L54.84 17.02Q56.88 17.02 58.09 15.77Q59.30 14.52 60.55 11.93L60.55 11.93L61.06 11.93L60.60 17.54L47.88 17.54L47.88 17.02L49.30 17.02L49.30 1.27L47.88 1.27ZM68.23 17.78Q65.14 17.78 63.59 16.19Q62.04 14.59 62.04 11.75Q62.04 8.90 63.78 7.39Q65.52 5.88 68.21 5.88L68.21 5.88Q73.66 5.88 73.44 11.35L73.44 11.35L66.67 11.35L66.67 12.29Q66.67 14.64 67.27 15.84Q67.87 17.04 69.36 17.04L69.36 17.04Q72.14 17.04 73.01 14.06L73.01 14.06L73.44 14.14Q72.98 15.86 71.80 16.82Q70.61 17.78 68.23 17.78L68.23 17.78ZM66.70 9.70L66.70 10.87L69.17 10.87L69.17 9.70Q69.17 7.75 68.94 7.04Q68.71 6.34 68.03 6.34Q67.34 6.34 67.02 7.09Q66.70 7.85 66.70 9.70L66.70 9.70ZM74.90 17.78L74.62 17.78L74.62 13.49L74.90 13.49Q75.53 15.58 76.58 16.42Q77.64 17.26 79.22 17.26L79.22 17.26Q81.67 17.26 81.67 15.70L81.67 15.70Q81.67 15.02 81.07 14.69L81.07 14.69Q80.14 14.16 78.67 13.87L78.67 13.87Q77.04 13.44 75.94 12.72L75.94 12.72Q74.62 11.86 74.62 9.98Q74.62 8.11 75.77 7.00Q76.92 5.88 78.84 5.88L78.84 5.88Q80.02 5.88 81.26 6.43L81.26 6.43Q81.72 6.62 81.96 6.62Q82.20 6.62 82.37 6.46Q82.54 6.29 82.78 5.83L82.78 5.83L83.04 5.83L83.04 9.50L82.75 9.50Q81.53 6.38 78.96 6.38L78.96 6.38Q77.83 6.38 77.28 6.78Q76.73 7.18 76.73 7.78L76.73 7.78Q76.73 8.14 76.90 8.34Q77.06 8.54 77.16 8.64Q77.26 8.74 77.47 8.84Q77.69 8.95 77.83 9.01Q77.98 9.07 78.28 9.17Q78.58 9.26 78.72 9.29L78.72 9.29Q80.35 9.70 81.07 10.00Q81.79 10.30 82.44 10.73L82.44 10.73Q83.76 11.64 83.76 13.67Q83.76 15.70 82.56 16.74Q81.36 17.78 79.27 17.78L79.27 17.78Q77.78 17.78 76.39 17.09L76.39 17.09Q76.10 16.90 75.94 16.90L75.94 16.90Q75.41 16.90 74.90 17.78L74.90 17.78ZM93.60 17.30L93.60 17.30Q94.78 17.30 95.10 16.87Q95.42 16.44 95.42 15.41L95.42 15.41L95.42 10.75L93.89 10.75L93.89 10.22L100.80 10.22L100.80 10.75L99.86 10.75L99.86 17.52L99.50 17.52Q99.07 16.92 98.28 16.92L98.28 16.92Q97.94 16.92 96.28 17.35Q94.61 17.78 93.43 17.78L93.43 17.78Q89.52 17.78 87.37 15.67Q85.22 13.56 85.22 9.32Q85.22 5.09 87.47 2.78Q89.71 0.48 93.50 0.48L93.50 0.48Q94.97 0.48 96.44 0.85Q97.92 1.22 98.16 1.22Q98.40 1.22 98.52 1.12Q98.64 1.01 98.78 0.74L98.78 0.74L99.05 0.74L99.24 5.95L98.81 5.95Q97.63 3.62 96.44 2.29Q95.26 0.96 93.79 0.96L93.79 0.96Q90.12 0.96 90.12 8.14L90.12 8.14L90.12 10.03Q90.12 13.63 91.02 15.47Q91.92 17.30 93.60 17.30ZM110.88 0.96L110.88 0.96Q107.16 0.96 107.16 8.14L107.16 8.14L107.16 10.03Q107.16 13.44 108.14 15.37Q109.13 17.30 111.05 17.30L111.05 17.30Q113.69 17.30 115.90 12.17L115.90 12.17L116.33 12.17L116.16 17.52L115.90 17.52Q115.75 17.26 115.63 17.15Q115.51 17.04 115.28 17.04Q115.06 17.04 113.54 17.41Q112.03 17.78 110.47 17.78L110.47 17.78Q106.56 17.78 104.41 15.67Q102.26 13.56 102.26 9.32Q102.26 5.09 104.51 2.78Q106.75 0.48 110.54 0.48L110.54 0.48Q112.01 0.48 113.41 0.85Q114.82 1.22 115.06 1.22Q115.30 1.22 115.42 1.12Q115.54 1.01 115.68 0.74L115.68 0.74L115.94 0.74L116.14 5.95L115.70 5.95Q114.62 3.53 113.48 2.24Q112.34 0.96 110.88 0.96Z" transform="translate(12.001 12)"></path></svg>